<svg xmlns="http://www.w3.org/2000/svg" xmlns:xlink="http://www.w3.org/1999/xlink" width="500" zoomAndPan="magnify" viewBox="0 0 375 374.999991" height="500" preserveAspectRatio="xMidYMid meet" version="1.0"><defs><g/></defs><g fill="#04ca9f" fill-opacity="1"><g transform="translate(87.348068, 176.896076)"><g><path d="M 43.714844 0 L 43.714844 -151.070312 L 5.890625 -151.070312 L 5.890625 0 Z M 43.714844 0 "/></g></g></g><g fill="#04ca9f" fill-opacity="1"><g transform="translate(160.052223, 176.896076)"><g><path d="M 119.363281 0 L 119.363281 -151.070312 L 5.890625 -151.070312 L 5.890625 0 Z M 81.539062 -34.425781 L 43.714844 -34.425781 L 43.714844 -116.417969 L 81.539062 -116.417969 Z M 81.539062 -34.425781 "/></g></g></g><g fill="#04ca9f" fill-opacity="1"><g transform="translate(87.348068, 346.396065)"><g><path d="M 119.363281 0 L 119.363281 -151.070312 L 5.890625 -151.070312 L 5.890625 0 Z M 81.539062 -34.425781 L 43.714844 -34.425781 L 43.714844 -116.417969 L 81.539062 -116.417969 Z M 81.539062 -34.425781 "/></g></g></g><g fill="#04ca9f" fill-opacity="1"><g transform="translate(235.474085, 346.396065)"><g><path d="M 43.714844 0 L 43.714844 -151.070312 L 5.890625 -151.070312 L 5.890625 0 Z M 43.714844 0 "/></g></g></g></svg>